<?xml version="1.0" encoding="utf-8"?>
<!-- Generator: Adobe Illustrator 23.1.0, SVG Export Plug-In . SVG Version: 6.00 Build 0)  -->
<svg version="1.1" xmlns="http://www.w3.org/2000/svg" xmlns:xlink="http://www.w3.org/1999/xlink" x="0px" y="0px"
	 viewBox="0 0 200 200" style="enable-background:new 0 0 200 200;" xml:space="preserve">
<style type="text/css">
	.st0{fill:#FFFFFF;}
	.st1{fill:#CFE2EF;}
	.st2{fill:#E46C6A;}
	.st3{fill:#334960;}
	.st4{fill:#F7F8F8;}
	.st5{fill:#FFA725;}
	.st6{fill:#C84F00;}
	.st7{fill:#E06D00;}
	.st8{fill:#FF8980;}
	.st9{fill:#EAE5E1;}
	.st10{fill:#FFCC60;}
	.st11{fill:#311F1B;}
	.st12{fill:#473A38;}
	.st13{fill:#FFA29E;}
	.st14{fill:#3E3344;}
	.st15{fill:#F48282;}
	.st16{fill:#EBE6EF;}
	.st17{fill:#3F3344;}
	.st18{fill:#EA7513;}
	.st19{fill:#FBF2E3;}
	.st20{fill:#FDE2C5;}
	.st21{fill:#F26261;}
	.st22{fill:#F4CBA8;}
	.st23{fill:#3A2517;}
	.st24{fill:#493326;}
	.st25{fill:#F495A1;}
	.st26{fill:#EF7D90;}
	.st27{fill:#EF8956;}
	.st28{fill:#E0784B;}
	.st29{fill:#FCD2A7;}
	.st30{fill:#F7C394;}
	.st31{fill:#E0A168;}
	.st32{fill:#FF905F;}
	.st33{fill:#1A1819;}
	.st34{fill:#FAFAFA;}
	.st35{fill:#C6C7CC;}
	.st36{fill:#BBBBC4;}
	.st37{fill:#7E9163;}
	.st38{fill:#D5D7DB;}
	.st39{fill:#383838;}
	.st40{fill:#C86A46;}
	.st41{fill:#BF583C;}
	.st42{fill:#512F2A;}
	.st43{fill:#26180E;}
	.st44{fill:#382416;}
	.st45{fill:#30231A;}
	.st46{fill:#704843;}
	.st47{fill:#515465;}
	.st48{fill:#3F4351;}
	.st49{fill:#00000E;}
	.st50{fill:#34343F;}
	.st51{fill:#211918;}
	.st52{fill:#ECE8E7;}
	.st53{fill:#D8D6D6;}
	.st54{fill:#474646;}
	.st55{fill:#2D2D2D;}
	.st56{fill:#262222;}
	.st57{fill:#29343F;}
	.st58{fill:#F99595;}
	.st59{fill:#EF9C37;}
	.st60{fill:#0C0C05;}
	.st61{fill:#FC8383;}
	.st62{fill:#EACA8F;}
	.st63{fill:#D3AD75;}
	.st64{fill:#FFF4E9;}
	.st65{fill:#333333;}
	.st66{fill:#494949;}
	.st67{fill:#17242D;}
	.st68{fill:#FFCE55;}
	.st69{fill:#171308;}
	.st70{fill:#F2A653;}
	.st71{fill:#D38537;}
	.st72{fill:#341F10;}
	.st73{fill:#FFDBAB;}
	.st74{fill:#642912;}
	.st75{fill:#4C311F;}
	.st76{fill:#F4F4F4;}
	.st77{fill:#C9CBD3;}
	.st78{fill:#252B39;}
	.st79{fill:#303344;}
	.st80{fill:#515668;}
	.st81{fill:#FCE6E6;}
	.st82{fill:#F99393;}
	.st83{fill:#181818;}
	.st84{fill:#656161;}
	.st85{fill:#605C5C;}
	.st86{fill:#ECBF0B;}
	.st87{fill:#111111;}
	.st88{fill:#EFEFEF;}
	.st89{fill:#666262;}
	.st90{fill:#EF8D46;}
	.st91{fill:#E5772C;}
	.st92{fill:#D56428;}
	.st93{fill:#C9511C;}
	.st94{fill:#EDCC9F;}
	.st95{fill:#DBB382;}
	.st96{fill:#DDB17C;}
	.st97{fill:#4B1B11;}
	.st98{fill:#F5F3F4;}
	.st99{fill:#FCC0CD;}
	.st100{fill:#EA8395;}
	.st101{fill:#E28813;}
	.st102{fill:#FFC476;}
	.st103{fill:#F7AF59;}
	.st104{fill:#EBD5D2;}
	.st105{fill:#5E331B;}
	.st106{fill:#220E00;}
	.st107{fill:#443735;}
	.st108{fill:#E5A366;}
	.st109{fill:#A4602F;}
	.st110{fill:#1D160B;}
	.st111{fill:#743016;}
	.st112{fill:#49352A;}
	.st113{fill:#B68253;}
	.st114{fill:#A35F2E;}
	.st115{fill:#6A4733;}
	.st116{fill:#0B0102;}
	.st117{fill:#210D03;}
	.st118{fill:#1D1610;}
	.st119{fill:#D87B1C;}
	.st120{fill:#CD5C03;}
	.st121{fill:#8E3A02;}
	.st122{fill:#FFC355;}
	.st123{fill:#EA9C37;}
	.st124{fill:#B85405;}
	.st125{fill:#A55109;}
	.st126{fill:#FFF3CC;}
	.st127{fill:#FCF8A1;}
	.st128{fill:#E6AC7D;}
	.st129{fill:#FBD1AE;}
	.st130{fill:#D79024;}
	.st131{fill:#A8753B;}
	.st132{fill:#B66813;}
	.st133{fill:#28243C;}
	.st134{fill:#AD734D;}
	.st135{fill:#444156;}
	.st136{fill:none;stroke:#311F1B;stroke-width:4;stroke-linecap:round;stroke-linejoin:round;stroke-miterlimit:10;}
	.st137{fill:#FFEFD8;}
	.st138{fill:#947A69;}
	.st139{fill:#7C6152;}
	.st140{fill:#46260F;}
	.st141{fill:#472710;}
	.st142{fill:#593D2B;}
	.st143{fill:#47240E;}
	.st144{fill:#F05A5B;}
	.st145{fill:#484848;}
	.st146{fill:#8A8E91;}
	.st147{fill:#5D2418;}
	.st148{fill:#353535;}
	.st149{fill:#21241F;}
	.st150{fill:#BEBEBE;}
	.st151{fill:#FCD9D9;}
	.st152{fill:#A4DDF3;}
	.st153{fill:#3A3938;}
	.st154{fill:#C18441;}
	.st155{fill:#A6642D;}
	.st156{fill:#FEFFFA;}
	.st157{fill:#DBD7D6;}
	.st158{fill:#1B1B1B;}
	.st159{fill:#DBD7D4;}
	.st160{fill:#484C51;}
	.st161{fill:#3A3E42;}
	.st162{fill:#93949D;}
	.st163{fill:#CFCD8A;}
	.st164{fill:#271C16;}
	.st165{fill:#FEFDFE;}
	.st166{fill:#FFFEF8;}
	.st167{fill:#D6D6D4;}
	.st168{fill:#C05541;}
	.st169{fill:#A03C2E;}
	.st170{fill:#3F3331;}
	.st171{fill:#ED8F4F;}
	.st172{fill:#D17537;}
	.st173{fill:#D3CFBA;}
	.st174{fill:#FDFAE9;}
	.st175{fill:#423532;}
	.st176{fill:#8E5133;}
	.st177{fill:#F9F0E8;}
	.st178{fill:#E4D7D5;}
	.st179{fill:#683421;}
	.st180{fill:#75512B;}
	.st181{fill:#160500;}
	.st182{fill:#EEC9C9;}
	.st183{fill:#A1959F;}
	.st184{fill:#42404E;}
	.st185{fill:#6F6172;}
	.st186{fill:#413F4D;}
	.st187{fill:#6C6675;}
	.st188{fill:#E27C00;}
	.st189{fill:#151217;}
	.st190{fill:#272528;}
	.st191{fill:#1D1B29;}
	.st192{fill:#BAB9BA;}
	.st193{fill:#373642;}
	.st194{fill:#EA9243;}
	.st195{fill:#CC7833;}
	.st196{fill:#4A3A43;}
	.st197{fill:#6D656A;}
</style>
<g id="图层_1">
</g>
<g id="图层_2">
	<g>
		<g>
			<g>
				<g>
					<path class="st27" d="M96.75,176.81c0,0-98.38,5.96-81.25-75.94c-3.72-46.16-5.58-60.3-4.47-74.45s3.91-13.59,10.8-10.8
						s38.53,24.94,43.74,30.71c5.4-2.79,35.55-13.96,71.47,1.86c8.38-6.89,26.99-23.08,40.39-30.34c5.4-2.98,12.66-9.68,13.59,7.07
						c0.93,16.75-4.03,66.88-6.02,80.78C186.74,124.82,192.9,175.45,96.75,176.81z"/>
				</g>
			</g>
			<g>
				<g>
					<path class="st28" d="M96.61,169.06c-71.55,0-82.37-40.86-82.55-41.54c7.26,53.86,82.69,49.29,82.69,49.29
						c69.12-0.98,85.36-27.42,88.39-49.31C185.13,127.53,168.74,169.06,96.61,169.06z"/>
				</g>
			</g>
			<g>
				<g>
					<path class="st29" d="M99.29,110.74c-37.47,0-67.85,19.98-67.85,44.63c0,1.35,0.11,2.69,0.29,4.01
						c24.5,19.89,65.03,17.44,65.03,17.44c35.59-0.51,57.15-7.76,70.12-17.67c0.16-1.25,0.26-2.51,0.26-3.78
						C167.13,130.72,136.76,110.74,99.29,110.74z"/>
				</g>
			</g>
			<g>
				<g>
					<path class="st30" d="M101.04,176.71c0.71-0.02,1.43-0.04,2.13-0.07c0.4-0.02,0.79-0.04,1.19-0.05
						c0.64-0.03,1.28-0.05,1.91-0.09c0.4-0.02,0.8-0.05,1.2-0.07c0.61-0.03,1.22-0.07,1.82-0.11c0.4-0.03,0.79-0.06,1.19-0.08
						c0.59-0.04,1.18-0.08,1.75-0.13c0.39-0.03,0.78-0.07,1.17-0.1c0.57-0.05,1.14-0.1,1.7-0.15c0.38-0.04,0.75-0.07,1.13-0.11
						c0.56-0.06,1.12-0.11,1.68-0.17c0.36-0.04,0.71-0.08,1.07-0.12c0.56-0.06,1.11-0.13,1.66-0.2c0.34-0.04,0.68-0.09,1.01-0.13
						c0.55-0.07,1.11-0.14,1.65-0.22c0.32-0.04,0.63-0.09,0.95-0.14c0.55-0.08,1.1-0.16,1.65-0.25c0.3-0.05,0.59-0.09,0.88-0.14
						c0.55-0.09,1.1-0.18,1.64-0.27c0.28-0.05,0.55-0.1,0.83-0.15c0.55-0.1,1.09-0.2,1.63-0.3c0.26-0.05,0.51-0.1,0.76-0.15
						c0.55-0.11,1.09-0.22,1.63-0.33c0.23-0.05,0.46-0.1,0.69-0.15c0.55-0.12,1.1-0.24,1.64-0.36c0.21-0.05,0.42-0.1,0.62-0.14
						c0.55-0.13,1.1-0.26,1.64-0.4c0.19-0.05,0.37-0.09,0.56-0.14c0.55-0.14,1.1-0.28,1.65-0.43c0.16-0.04,0.32-0.09,0.48-0.13
						c0.56-0.15,1.11-0.31,1.66-0.47c0.14-0.04,0.27-0.08,0.4-0.12c0.57-0.17,1.13-0.34,1.68-0.51c0.11-0.03,0.21-0.07,0.32-0.1
						c0.58-0.18,1.15-0.37,1.71-0.56c0.08-0.03,0.15-0.05,0.23-0.08c0.59-0.2,1.17-0.4,1.74-0.61c0.05-0.02,0.1-0.04,0.15-0.05
						c0.6-0.22,1.19-0.44,1.77-0.67c0.02-0.01,0.03-0.01,0.05-0.02c6.7-2.61,12.17-5.7,16.62-9.1c0.16-1.25,0.26-2.51,0.26-3.78
						c0-2.03-0.23-4.02-0.62-5.98c-13.27,10.01-35.1,19.68-69.9,19.68c-32.73,0-52.75-8.55-64.86-17.9c-0.2,1.38-0.31,2.78-0.31,4.2
						c0,1.35,0.11,2.68,0.29,4c0.43,0.35,0.87,0.69,1.31,1.03c0.15,0.11,0.3,0.23,0.45,0.34c0.34,0.25,0.67,0.5,1.02,0.74
						c0.17,0.12,0.34,0.24,0.52,0.37c0.4,0.28,0.81,0.55,1.21,0.82c0.1,0.07,0.2,0.14,0.3,0.2c0.47,0.31,0.94,0.6,1.42,0.9
						c0.18,0.11,0.37,0.22,0.55,0.33c0.34,0.2,0.68,0.41,1.03,0.61c0.19,0.11,0.37,0.21,0.56,0.32c0.49,0.28,0.98,0.55,1.48,0.81
						c0.14,0.07,0.28,0.15,0.42,0.22c0.38,0.2,0.77,0.4,1.16,0.59c0.21,0.1,0.41,0.21,0.62,0.31c0.35,0.17,0.7,0.34,1.05,0.5
						c0.19,0.09,0.38,0.18,0.57,0.27c0.5,0.23,1.01,0.46,1.51,0.67c0.19,0.08,0.39,0.16,0.58,0.25c0.35,0.15,0.7,0.29,1.05,0.44
						c0.22,0.09,0.45,0.18,0.67,0.27c0.36,0.14,0.72,0.28,1.07,0.42c0.19,0.07,0.37,0.14,0.56,0.21c0.51,0.19,1.01,0.37,1.52,0.55
						c0.22,0.08,0.44,0.15,0.67,0.23c0.33,0.11,0.67,0.23,1,0.34c0.23,0.08,0.46,0.15,0.69,0.23c0.38,0.12,0.77,0.24,1.15,0.36
						c0.26,0.08,0.51,0.16,0.77,0.24c0.41,0.12,0.83,0.25,1.24,0.36c0.23,0.07,0.47,0.13,0.7,0.2c0.32,0.09,0.64,0.18,0.96,0.26
						c0.23,0.06,0.46,0.12,0.7,0.19c0.45,0.12,0.9,0.23,1.35,0.34c0.25,0.06,0.49,0.12,0.74,0.18c0.34,0.08,0.68,0.16,1.02,0.24
						c0.24,0.06,0.48,0.11,0.72,0.16c0.31,0.07,0.62,0.14,0.93,0.2c0.23,0.05,0.45,0.1,0.68,0.14c0.48,0.1,0.96,0.2,1.44,0.29
						c0.22,0.04,0.44,0.08,0.66,0.12c0.31,0.06,0.61,0.12,0.92,0.17c0.24,0.04,0.47,0.08,0.71,0.13c0.31,0.05,0.61,0.11,0.91,0.16
						c0.21,0.03,0.42,0.07,0.63,0.1c0.46,0.07,0.92,0.15,1.37,0.21c0.23,0.03,0.45,0.07,0.68,0.1c0.28,0.04,0.56,0.08,0.83,0.12
						c0.23,0.03,0.45,0.06,0.67,0.09c0.31,0.04,0.62,0.08,0.93,0.12c0.29,0.04,0.58,0.07,0.86,0.11c0.32,0.04,0.64,0.08,0.95,0.11
						c0.21,0.02,0.43,0.05,0.64,0.07c0.26,0.03,0.52,0.06,0.77,0.08c0.21,0.02,0.42,0.04,0.63,0.06c0.36,0.04,0.72,0.07,1.07,0.1
						c0.22,0.02,0.45,0.04,0.67,0.06c0.26,0.02,0.53,0.04,0.79,0.07c0.2,0.02,0.39,0.03,0.58,0.05c0.25,0.02,0.5,0.04,0.74,0.05
						c0.17,0.01,0.34,0.02,0.51,0.04c0.37,0.02,0.74,0.05,1.1,0.07c0.17,0.01,0.34,0.02,0.51,0.03c0.22,0.01,0.45,0.02,0.67,0.04
						c0.17,0.01,0.34,0.02,0.51,0.02c0.23,0.01,0.45,0.02,0.67,0.03c0.15,0.01,0.31,0.01,0.46,0.02c0.32,0.01,0.63,0.02,0.93,0.03
						c0.15,0,0.29,0.01,0.43,0.01c0.2,0.01,0.39,0.01,0.59,0.02c0.14,0,0.28,0.01,0.41,0.01c0.22,0,0.44,0.01,0.65,0.01
						c0.16,0,0.32,0,0.47,0.01c0.21,0,0.41,0,0.61,0.01c0.12,0,0.23,0,0.34,0c0.17,0,0.34,0,0.51,0c0.1,0,0.19,0,0.29,0
						c0.24,0,0.47,0,0.69,0c0.06,0,0.12,0,0.18,0c0.16,0,0.32,0,0.47-0.01c0.08,0,0.17,0,0.25,0c0.13,0,0.26,0,0.38-0.01
						c0.06,0,0.12,0,0.18,0c0.17,0,0.33-0.01,0.47-0.01c0.05,0,0.1,0,0.14,0c0.1,0,0.19-0.01,0.28-0.01c0.05,0,0.11,0,0.16-0.01
						c0.07,0,0.14-0.01,0.21-0.01c0.03,0,0.07,0,0.1,0c0.09,0,0.16-0.01,0.22-0.01c0.03,0,0.05,0,0.08,0c0.03,0,0.06,0,0.08,0
						c0.01,0,0.03,0,0.04,0c0.02,0,0.04,0,0.04,0c1.1-0.02,2.18-0.04,3.25-0.07C100.36,176.74,100.7,176.72,101.04,176.71z"/>
				</g>
			</g>
			<g>
				<g>
					<path class="st29" d="M41.81,74.82c-2.85,0-6.82,0.5-12.04,2.73c4.59-9.68,12.9-9.93,16.38-9.93
						c-0.37-0.37-2.11-1.36-7.32-1.24c5.34-7.69,13.28-6.95,17-6.08c-7.82-32.88-36.42-45.6-36.42-45.6
						c-5.14-1.77-7.4-0.63-8.37,11.72c-1.12,14.15,0.74,28.29,4.47,74.45c10.4-2.57,18.74-17.87,18.74-17.87
						C34.36,80.53,38.7,76.31,41.81,74.82z"/>
				</g>
			</g>
			<g>
				<g>
					<path class="st31" d="M34.24,83.01c0.12-2.48,4.47-6.7,7.57-8.19c-2.85,0-6.82,0.5-12.04,2.73c4.59-9.68,12.9-9.93,16.38-9.93
						c-0.37-0.37-2.11-1.36-7.32-1.24c5.34-7.69,13.28-6.95,17-6.08c-5.74-24.16-22.7-37.42-31.29-42.76
						c-0.09,0.02-4.34,1.06-1.82,31.32c1.81,21.63,3.74,35.08,4.71,43.7C31.6,87.85,34.24,83.01,34.24,83.01z"/>
				</g>
			</g>
			<g>
				<g>
					<path class="st29" d="M160.37,74.82c2.85,0,6.82,0.5,12.04,2.73c-4.59-9.68-12.9-9.93-16.38-9.93
						c0.37-0.37,2.11-1.36,7.32-1.24c-5.34-7.69-13.28-6.95-17-6.08c7.82-32.88,36.42-45.6,36.42-45.6
						c5.14-1.77,7.4-0.63,8.37,11.72c1.12,14.15-0.74,28.29-4.47,74.45c-10.4-2.57-18.74-17.87-18.74-17.87
						C167.82,80.53,163.47,76.31,160.37,74.82z"/>
				</g>
			</g>
			<g>
				<g>
					<path class="st31" d="M167.94,83.01c-0.12-2.48-4.47-6.7-7.57-8.19c2.85,0,6.82,0.5,12.04,2.73
						c-4.59-9.68-12.9-9.93-16.38-9.93c0.37-0.37,2.11-1.36,7.32-1.24c-5.34-7.69-13.28-6.95-17-6.08
						c5.74-24.16,22.7-37.42,31.29-42.76c0.09,0.02,4.34,1.06,1.82,31.32c-1.81,21.63-3.74,35.08-4.71,43.7
						C170.58,87.85,167.94,83.01,167.94,83.01z"/>
				</g>
			</g>
			<g>
				<g>
					<path class="st32" d="M65.57,46.34c-2.76-3.05-12.91-10.69-22.89-17.62l-0.81,0.26c0,0,20.68,20.81,22.72,26.07
						c7.4-2.4,33.13-10.97,73.02,1.64c5.62-6.34,20.21-22.8,25.39-27.12c-0.39-0.44-0.81-0.87-1.26-1.3
						c-9.73,7.27-19.32,15.52-24.7,19.94C101.12,32.38,70.97,43.55,65.57,46.34z"/>
				</g>
			</g>
			<g>
				<g>
					<path class="st31" d="M57.75,105.44c0,0-18.43-3.35-21.59,13.4c-1.12,7.07,5.4,22.15,26.99,20.47
						c13.4-1.49,17.5-9.82,13.59-17.01C72.83,115.12,69.1,109.35,57.75,105.44z"/>
				</g>
			</g>
			<g>
				<g>
					<path class="st23" d="M66.75,122.3c0.18-6.14-1.61-11.27-4.71-15.13c-1.3-0.61-2.71-1.19-4.29-1.73c0,0-9.47-1.72-16,3.48
						c-0.03,0.06-5.76,11.31,2.66,19.6C52.85,136.83,66.5,130.6,66.75,122.3z"/>
				</g>
			</g>
			<g>
				<g>
					<circle class="st0" cx="48.38" cy="113.19" r="4.09"/>
				</g>
			</g>
			<g>
				<g>
					<path class="st31" d="M141.08,105.44c0,0,18.43-3.35,21.59,13.4c1.12,7.07-5.4,22.15-26.99,20.47
						c-13.4-1.49-17.5-9.82-13.59-17.01S129.72,109.35,141.08,105.44z"/>
				</g>
			</g>
			<g>
				<g>
					<path class="st23" d="M132.08,122.3c-0.18-6.14,1.61-11.27,4.71-15.13c1.3-0.61,2.71-1.19,4.29-1.73c0,0,9.47-1.72,16,3.48
						c0.03,0.06,5.76,11.31-2.66,19.6C145.98,136.83,132.33,130.6,132.08,122.3z"/>
				</g>
			</g>
			<g>
				<g>
					<circle class="st0" cx="150.44" cy="113.19" r="4.09"/>
				</g>
			</g>
		</g>
		<g>
			<g>
				<g>
					<path class="st23" d="M59.91,141.44c-10.74,0-16.96-4.17-20.38-7.87c-4.87-5.27-5.92-11.4-5.35-15.04
						c2.8-14.85,16.88-16.34,23.92-15.06c0.1,0.02,0.2,0.04,0.29,0.08c11.86,4.08,15.96,10.21,20.09,17.8
						c2.06,3.78,2.19,7.95,0.37,11.44c-2.43,4.65-7.93,7.68-15.5,8.52C62.17,141.39,61.02,141.44,59.91,141.44z M53.93,107.14
						c-5,0-13.82,1.54-15.8,12.07c-0.44,2.82,0.72,7.71,4.35,11.64c3.17,3.43,9.29,7.34,20.52,6.46c6.13-0.68,10.53-2.95,12.33-6.38
						c1.21-2.32,1.09-5.05-0.34-7.67c-3.93-7.23-7.3-12.25-17.72-15.88C56.83,107.31,55.59,107.14,53.93,107.14z"/>
				</g>
			</g>
			<g>
				<g>
					<path class="st23" d="M77.56,111.56c-1.63,0-3.02-0.38-3.92-0.81c-1-0.48-1.42-1.67-0.94-2.67c0.47-0.99,1.66-1.41,2.65-0.95
						c0.42,0.19,4.07,1.68,7.45-2.12c0.73-0.82,2-0.9,2.82-0.17c0.83,0.73,0.9,2,0.17,2.82C83.13,110.67,80.07,111.56,77.56,111.56z
						"/>
				</g>
			</g>
			<g>
				<g>
					<path class="st23" d="M138.95,141.44c-1.09,0-2.23-0.04-3.42-0.14c-7.63-0.85-13.14-3.87-15.56-8.52
						c-1.82-3.49-1.68-7.66,0.37-11.44c4.13-7.59,8.23-13.72,20.09-17.8c0.1-0.03,0.19-0.06,0.29-0.08c7.04-1.28,21.12,0.2,23.91,15
						c0.59,3.7-0.47,9.83-5.34,15.1C155.87,137.27,149.65,141.44,138.95,141.44z M141.57,107.38c-10.43,3.63-13.79,8.65-17.72,15.88
						c-1.43,2.63-1.55,5.36-0.34,7.68c1.79,3.43,6.19,5.7,12.39,6.39c11.15,0.86,17.29-3.04,20.46-6.47
						c3.63-3.93,4.79-8.82,4.34-11.7C158.05,105.19,143.29,107.11,141.57,107.38z"/>
				</g>
			</g>
			<g>
				<g>
					<path class="st23" d="M121.27,111.56c-2.51,0-5.57-0.9-8.23-3.89c-0.73-0.83-0.66-2.09,0.17-2.82
						c0.83-0.73,2.09-0.66,2.82,0.17c3.39,3.81,7.05,2.31,7.45,2.12c1-0.45,2.18-0.02,2.65,0.97c0.46,0.99,0.05,2.17-0.94,2.64
						C124.29,111.19,122.89,111.56,121.27,111.56z"/>
				</g>
			</g>
			<g>
				<g>
					<path class="st23" d="M102.76,146.78c-0.1-1.13-0.81-2.11-1.85-2.56c-3.4-1.45-7.26-1.47-10.56-0.04
						c-1.06,0.46-1.77,1.46-1.86,2.6c-0.09,1.14,0.45,2.23,1.41,2.84l4.12,2.66c0.51,0.33,1.09,0.5,1.68,0.5
						c0.6,0,1.19-0.17,1.71-0.52l3.98-2.63C102.33,149.02,102.86,147.92,102.76,146.78z"/>
				</g>
			</g>
			<path class="st23" d="M187.07,106.43l-0.06-0.67c1.97-13.99,6.94-64.02,6-80.94c-0.38-6.87-1.85-10.75-4.63-12.21
				c-3.28-1.72-6.87,0.46-10.04,2.39c-0.64,0.39-1.27,0.77-1.87,1.1c-11.67,6.32-27.26,19.34-36.58,27.12
				c-1.16,0.97-2.23,1.86-3.19,2.66c-31.99-13.63-60.59-6.56-70.73-1.96c-7.57-7.12-36.59-27.38-43.4-30.15
				c-3.17-1.29-6.45-2.62-9.13-0.96c-2.57,1.59-3.76,5.23-4.41,13.46c-0.88,11.17,0.04,22.06,2.27,48.39
				c0.63,7.38,1.35,15.96,2.17,26.09c-4.1,19.88-1.81,36.35,6.77,49.08c-3.64,0.59-7.11,1.35-10.16,2.35
				c-1.05,0.34-1.62,1.47-1.28,2.52c0.28,0.84,1.06,1.38,1.9,1.38c0.2,0,0.41-0.03,0.62-0.1c3.46-1.13,7.46-1.94,11.63-2.53
				c0.28,0.34,0.54,0.69,0.83,1.02c2.02,2.34,4.23,4.44,6.57,6.36c-7.2,2.23-14.6,5.01-20.62,8.38c-0.96,0.54-1.31,1.76-0.77,2.72
				c0.37,0.66,1.05,1.03,1.75,1.03c0.33,0,0.66-0.08,0.97-0.25c6.49-3.62,14.8-6.58,22.67-8.87c2.56,1.76,5.25,3.32,8,4.69
				c-8.67,4.37-18.54,10.31-24.44,16.99c-0.73,0.83-0.65,2.09,0.17,2.82c0.38,0.34,0.85,0.5,1.32,0.5c0.55,0,1.1-0.23,1.5-0.67
				c6.11-6.91,17.18-13.16,26.16-17.47c17.34,7.28,36.24,8.24,44.96,8.24c2.65,0,4.36-0.09,4.8-0.11
				c20.74-0.3,38.03-2.93,51.76-7.84c8.87,4.3,19.6,10.43,25.58,17.19c0.39,0.45,0.95,0.67,1.5,0.67c0.47,0,0.94-0.17,1.32-0.5
				c0.83-0.73,0.9-2,0.17-2.82c-5.69-6.44-15.08-12.19-23.52-16.52c3.23-1.38,6.24-2.91,9.01-4.59c7.28,2.2,14.78,4.97,20.73,8.3
				c0.31,0.17,0.64,0.25,0.97,0.25c0.7,0,1.38-0.37,1.75-1.03c0.54-0.96,0.19-2.18-0.77-2.72c-5.4-3.01-11.89-5.56-18.37-7.66
				c3.08-2.23,5.83-4.68,8.22-7.34c0.07-0.08,0.14-0.16,0.21-0.24c2.97,0.53,5.8,1.19,8.34,2.01c0.21,0.07,0.41,0.1,0.62,0.1
				c0.84,0,1.63-0.54,1.9-1.38c0.34-1.05-0.23-2.18-1.28-2.52c-2.08-0.68-4.36-1.25-6.75-1.73
				C189.67,134.78,188.01,116.57,187.07,106.43z M173.8,149.67c-16.97-2.56-37.31-1.37-38.53-0.96c-1.05,0.35-1.61,1.48-1.26,2.53
				c0.33,0.98,1.34,1.54,2.34,1.32c1.69-0.25,18.87-1.26,34.25,0.69c-2.47,2.48-5.3,4.74-8.48,6.8c-13.19-3.87-25.1-5.83-25.89-5.96
				c-1.1-0.18-2.12,0.57-2.29,1.66c-0.18,1.09,0.56,2.12,1.66,2.29c0.17,0.03,10.04,1.65,21.69,4.82c-2.61,1.37-5.42,2.63-8.42,3.77
				c-7.27-3.44-12.98-5.55-13.51-5.74c-1.04-0.38-2.19,0.15-2.57,1.19c-0.38,1.04,0.15,2.19,1.19,2.57c0.1,0.04,3.97,1.47,9.38,3.89
				c-12.64,3.92-28.21,6.03-46.62,6.29c-0.03,0-0.06,0-0.09,0c-0.33,0.02-23.13,1.25-44.44-6.5c5.17-2.29,8.81-3.64,8.92-3.68
				c1.04-0.38,1.57-1.53,1.19-2.57c-0.38-1.04-1.53-1.57-2.57-1.19c-0.51,0.19-5.82,2.15-12.7,5.37c-2.56-1.13-5.06-2.42-7.47-3.86
				c10.87-2.86,19.77-4.33,19.93-4.35c1.09-0.18,1.83-1.2,1.66-2.29c-0.18-1.09-1.19-1.84-2.29-1.66
				c-0.75,0.12-11.44,1.88-23.76,5.35c-2.65-1.94-5.13-4.11-7.37-6.56c14.46-1.45,29.43-0.55,31.01-0.32c1,0.22,2.01-0.33,2.34-1.32
				c0.35-1.05-0.22-2.18-1.26-2.53c-1.15-0.38-18.94-1.44-35.11,0.5c-8.93-12.07-11.38-28.17-7.25-47.92
				c0.04-0.19,0.05-0.38,0.04-0.57c-0.83-10.26-1.56-18.94-2.19-26.39c-2.21-26.1-3.13-36.9-2.27-47.74
				c0.48-6.14,1.33-9.63,2.53-10.37c0.19-0.12,0.45-0.17,0.76-0.17c0.62,0,1.45,0.21,2.38,0.53c1.79,0.84,26.27,12.86,34.43,41.28
				c-4.47-0.36-11.17,0.51-15.94,7.38c-0.43,0.62-0.47,1.42-0.12,2.09c-3.27,1.48-6.67,4.23-9.1,9.36
				c-0.36,0.75-0.21,1.65,0.37,2.24c0.58,0.6,1.46,0.78,2.23,0.45c1.46-0.63,2.87-1.14,4.25-1.53c-1.44,1.66-2.49,3.46-2.57,5.05
				c-0.06,1.1,0.79,2.04,1.9,2.1c0.03,0,0.07,0,0.1,0c1.06,0,1.94-0.83,2-1.9c0.06-1.25,3.33-5,6.44-6.49
				c0.84-0.4,1.29-1.34,1.08-2.25s-1.02-1.56-1.95-1.56c-2.29,0-4.6,0.3-7,0.9c4.09-4.09,9.13-4.09,11.34-4.09
				c0.81,0,1.54-0.49,1.85-1.24c0.31-0.75,0.14-1.61-0.44-2.18c-0.52-0.52-1.71-1.27-4.4-1.63c4.22-3.43,9.26-3.02,12.21-2.33
				c0.68,0.16,1.38-0.04,1.87-0.54c0.49-0.49,0.69-1.2,0.53-1.87c-2.73-11.5-7.89-20.59-13.52-27.57
				c8.94,6.31,17.45,12.79,19.83,15.42c0.61,0.67,1.6,0.85,2.4,0.44c0.3-0.16,31.15-15.08,69.75,1.92c0.69,0.3,1.49,0.19,2.08-0.29
				c1.19-0.98,2.59-2.15,4.15-3.45c3.98-3.32,9.11-7.61,14.57-11.9c-4.97,6.67-9.41,15.07-11.87,25.44
				c-0.16,0.67,0.04,1.38,0.53,1.87c0.49,0.49,1.2,0.7,1.87,0.54c2.95-0.69,7.99-1.1,12.21,2.33c-2.69,0.36-3.88,1.11-4.4,1.63
				c-0.57,0.57-0.74,1.43-0.43,2.18c0.31,0.75,1.04,1.23,1.85,1.23c2.21,0,7.25,0,11.34,4.09c-2.39-0.6-4.71-0.9-7-0.9
				c-0.93,0-1.74,0.65-1.95,1.56c-0.21,0.91,0.24,1.84,1.08,2.25c3.11,1.49,6.38,5.24,6.44,6.49c0.05,1.07,0.94,1.9,2,1.9
				c0.03,0,0.07,0,0.1,0c1.1-0.06,1.95-0.99,1.9-2.1c-0.08-1.59-1.13-3.39-2.57-5.05c1.38,0.4,2.79,0.9,4.25,1.53
				c0.77,0.33,1.65,0.15,2.23-0.45c0.58-0.6,0.72-1.49,0.37-2.24c-2.44-5.14-5.84-7.89-9.1-9.36c0.36-0.66,0.31-1.47-0.12-2.09
				c-4.77-6.88-11.47-7.74-15.94-7.38c8.42-29.36,34.26-41.21,34.53-41.33c0.21-0.09,0.39-0.22,0.54-0.37
				c0.64-0.18,1.21-0.22,1.63-0.01c0.62,0.33,2.11,1.85,2.5,8.89c0.93,16.78-4.06,66.82-6,80.38c-0.02,0.15-0.03,0.31-0.01,0.46
				l0.08,0.91C184,116.73,185.67,134.86,173.8,149.67z"/>
			<g>
				<g>
					<path class="st23" d="M100.89,165.79c-0.71,0-1.39-0.37-1.75-1.04c-0.39-0.69-1.85-2.69-3.36-2.69c-1.59,0-3.34,2.09-3.83,2.82
						c-0.61,0.92-1.85,1.17-2.77,0.56c-0.92-0.61-1.18-1.84-0.57-2.76c0.31-0.47,3.15-4.63,7.17-4.63c4.12,0,6.59,4.27,6.86,4.76
						c0.53,0.97,0.18,2.18-0.79,2.72C101.55,165.71,101.22,165.79,100.89,165.79z"/>
				</g>
			</g>
		</g>
	</g>
</g>
<g id="图层_4">
</g>
</svg>
